<svg xmlns="http://www.w3.org/2000/svg" viewBox="0 0 1000 470" role="img">
<style>text{font-family:Verdana,'DejaVu Sans',Arial,sans-serif;fill:#25243f} .t{font-size:23px;font-weight:700} .s{font-size:17px} .c{font-size:15px;fill:#1b4d7e} .box{fill:#f8ede6;stroke:#9c4419;stroke-width:3} .arr{stroke:#9c4419;stroke-width:4;fill:none;marker-end:url(#a)} .cota{stroke:#1b4d7e;stroke-width:1.5;fill:none;marker-start:url(#c1);marker-end:url(#c2)} .aux{stroke:#1b4d7e;stroke-width:1;fill:none} .pieza{fill:#e9e9ec;stroke:#25243f;stroke-width:2.5} .hueco{fill:#fff;stroke:#25243f;stroke-width:2.5} .oculta{stroke:#25243f;stroke-width:1.5;stroke-dasharray:6 4;fill:none}</style>
<defs><marker id="a" markerUnits="userSpaceOnUse" markerWidth="16" markerHeight="16" refX="15" refY="8" orient="auto"><path d="M0,0 L0,16 L16,8 z" fill="#9c4419"/></marker>
<marker id="c1" markerWidth="10" markerHeight="10" refX="1" refY="3" orient="auto"><path d="M9,0 L9,6 L0,3 z" fill="#1b4d7e"/></marker>
<marker id="c2" markerWidth="10" markerHeight="10" refX="8" refY="3" orient="auto"><path d="M0,0 L0,6 L9,3 z" fill="#1b4d7e"/></marker></defs><text class="s" x="230" y="40" text-anchor="middle" font-weight="700">Una capa vista desde arriba</text><rect x="60" y="70" width="340" height="220" fill="none" stroke="#9c4419" stroke-width="4"/><rect x="72" y="82" width="316" height="196" fill="none" stroke="#9c4419" stroke-width="4"/><line x1="120" y1="94" x2="120" y2="266" stroke="#2c6fb0" stroke-width="2"/><line x1="156" y1="94" x2="156" y2="266" stroke="#2c6fb0" stroke-width="2"/><line x1="192" y1="94" x2="192" y2="266" stroke="#2c6fb0" stroke-width="2"/><line x1="228" y1="94" x2="228" y2="266" stroke="#2c6fb0" stroke-width="2"/><line x1="264" y1="94" x2="264" y2="266" stroke="#2c6fb0" stroke-width="2"/><line x1="300" y1="94" x2="300" y2="266" stroke="#2c6fb0" stroke-width="2"/><line x1="336" y1="94" x2="336" y2="266" stroke="#2c6fb0" stroke-width="2"/><line x1="84" y1="130" x2="376" y2="130" stroke="#2c6fb0" stroke-width="2"/><line x1="84" y1="166" x2="376" y2="166" stroke="#2c6fb0" stroke-width="2"/><line x1="84" y1="202" x2="376" y2="202" stroke="#2c6fb0" stroke-width="2"/><line x1="84" y1="238" x2="376" y2="238" stroke="#2c6fb0" stroke-width="2"/><rect x="300" y="200" width="60" height="50" fill="#e9e9ec" stroke="#8a8f99" stroke-width="2" stroke-dasharray="5 4"/><path d="M120 310 L 360 310" stroke="#2a7d4f" stroke-width="2" stroke-dasharray="8 6"/><text class="c" x="440" y="80">perímetros (paredes)</text><line class="aux" x1="402" y1="76" x2="436" y2="76"/><text class="c" x="440" y="130">relleno (rejilla, 15–20 %)</text><line class="aux" x1="300" y1="130" x2="436" y2="130"/><text class="c" x="440" y="228">soporte bajo un voladizo</text><line class="aux" x1="362" y1="225" x2="436" y2="225"/><text class="c" x="440" y="314">movimiento sin plástico</text><line class="aux" x1="362" y1="310" x2="436" y2="310"/><rect class="box" x="40" y="380" rx="14" width="200" height="70"/><text class="t" x="140" y="410" text-anchor="middle" font-size="20">STL</text><text class="s" x="140" y="435" text-anchor="middle" font-size="13">malla de triángulos</text><path class="arr" d="M240 415 H272"/><rect class="box" x="280" y="380" rx="14" width="200" height="70"/><text class="t" x="380" y="410" text-anchor="middle" font-size="20">Laminar</text><text class="s" x="380" y="435" text-anchor="middle" font-size="13">capas y parámetros</text><path class="arr" d="M480 415 H512"/><rect class="box" x="520" y="380" rx="14" width="200" height="70"/><text class="t" x="620" y="410" text-anchor="middle" font-size="20">G-code</text><text class="s" x="620" y="435" text-anchor="middle" font-size="13">órdenes de máquina</text><path class="arr" d="M720 415 H752"/><rect class="box" x="760" y="380" rx="14" width="200" height="70"/><text class="t" x="860" y="410" text-anchor="middle" font-size="20">Imprimir</text><text class="s" x="860" y="435" text-anchor="middle" font-size="13">turno y supervisión</text></svg>